Coordinates
version=1
nRows=27
nColumns=12
inDegrees=yes

Units are S.I. units (second, meters, Newtons, ...)
Angles are in degrees

endheader
time	SC_y	SC_z	SC_x	AC_y	AC_z	AC_x	GH_y	GH_z	GH_yy	EL_x	PS_y
       0.0              -33.42          20.72          31.84          46.45         -14.48         -1.317         -171.8          8.955          5.662          60.45          141.4
   0.02165              -33.42          20.72          31.85          46.44         -14.48         -1.316         -171.8          8.953          5.655          60.45          141.4
   0.04329              -33.42          20.72          31.85          46.44         -14.48         -1.316         -171.7          8.952          5.647          60.45          141.4
   0.06494              -33.42          20.71          31.85          46.44         -14.48         -1.316         -171.7           8.95           5.64          60.46          141.4
   0.08659              -33.42          20.71          31.86          46.44         -14.48         -1.316         -171.7          8.948          5.631          60.46          141.4
    0.1082              -33.42          20.71          31.86          46.44         -14.47         -1.316         -171.7          8.946          5.623          60.47          141.4
    0.1299              -33.42           20.7          31.87          46.44         -14.47         -1.316         -171.7          8.944          5.613          60.47          141.4
    0.1515              -33.42           20.7          31.87          46.44         -14.47         -1.316         -171.7          8.942          5.603          60.48          141.4
    0.1732              -33.42          20.69          31.88          46.44         -14.47         -1.315         -171.7           8.94          5.592          60.48          141.4
    0.1948              -33.42          20.69          31.88          46.43         -14.47         -1.315         -171.7          8.938          5.581          60.49          141.4
    0.2165              -33.42          20.68          31.89          46.43         -14.47         -1.315         -171.6          8.935          5.568           60.5          141.4
    0.2381              -33.42          20.68           31.9          46.43         -14.47         -1.315         -171.6          8.932          5.555           60.5          141.4
    0.2598              -33.42          20.67          31.91          46.43         -14.47         -1.315         -171.6          8.929           5.54          60.51          141.4
    0.2814              -33.42          20.67          31.91          46.43         -14.46         -1.314         -171.6          8.926          5.525          60.52          141.4
    0.3031              -33.42          20.66          31.92          46.42         -14.46         -1.314         -171.5          8.922          5.508          60.53          141.4
    0.3247              -33.42          20.65          31.93          46.42         -14.46         -1.314         -171.5          8.918           5.49          60.54          141.4
    0.3464              -33.42          20.64          31.94          46.42         -14.46         -1.313         -171.5          8.914           5.47          60.55          141.4
     0.368              -33.42          20.63          31.95          46.42         -14.46         -1.313         -171.5           8.91          5.448          60.56          141.4
    0.3897              -33.43          20.62          31.97          46.41         -14.45         -1.313         -171.4          8.905          5.425          60.57          141.4
    0.4113              -33.43          20.61          31.98          46.41         -14.45         -1.312         -171.4          8.899          5.399          60.58          141.3
    0.4329              -33.43           20.6          31.99           46.4         -14.45         -1.312         -171.3          8.893           5.37           60.6          141.3
    0.4546              -33.43          20.59          32.01           46.4         -14.44         -1.311         -171.3          8.887          5.339          60.62          141.3
    0.4762              -33.43          20.57          32.03          46.39         -14.44          -1.31         -171.2          8.879          5.304          60.63          141.3
    0.4979              -33.43          20.56          32.05          46.39         -14.44          -1.31         -171.2          8.871          5.266          60.65          141.3
    0.5195              -33.43          20.54          32.07          46.38         -14.43         -1.309         -171.1          8.862          5.224          60.68          141.3
    0.5412              -33.43          20.52           32.1          46.38         -14.43         -1.308         -171.1          8.852          5.176           60.7          141.3
    0.5628              -33.43           20.5          32.12          46.37         -14.42         -1.307         -171.0          8.841          5.123          60.73          141.3
